{"title":"The Experiment 2010 DVDscr Xvid.avi","uid":5773700,"size":1254346444,"categoryP":"video","categoryS":"movies","magnet":"?xt=urn:btih:f3dd15e7536e3c5dfc5333cc69b4d4186a9dfe74&amp;dn=The+Experiment+2010+DVDscr+Xvid.avi&amp;tr=udp%3A%2F%2Ftracker.openbittorrent.com%3A80&amp;tr=udp%3A%2F%2Fopen.demonii.com%3A1337&amp;tr=udp%3A%2F%2Ftracker.coppersurfer.tk%3A6969&amp;tr=udp%3A%2F%2Fexodus.desync.com%3A6969","seeders":0,"leechers":0,"uploader":"nokia777","files":1,"time":1282202465,"description":"    ___________________\\\\\\\\\\\\\\\\\\/////////___________________\n     __________________/////////\\\\\\\\\\\\\\\\\\__________________\n      ________________/////////  \\\\\\\\\\\\\\\\\\________________\n       ______________/////////    \\\\\\\\\\\\\\\\\\______________\n        ____________/////////      \\\\\\\\\\\\\\\\\\____________\n         __________/////////        \\\\\\\\\\\\\\\\\\__________\n          ________/////////   File   \\\\\\\\\\\\\\\\\\________\n           ______/////////            \\\\\\\\\\\\\\\\\\______\n            ____/////////  Downloaded  \\\\\\\\\\\\\\\\\\____\n            *__/////////                \\\\\\\\\\\\\\\\\\__*\n           ***/////////       From       \\\\\\\\\\\\\\\\\\***\n          ***/////////                    \\\\\\\\\\\\\\\\\\***\n         ***/////////  AtomicTorrents.net  \\\\\\\\\\\\\\\\\\***\n        ****\\\\\\\\\\\\\\\\\\                      /////////****\n       ******\\\\\\\\\\\\\\\\********      *********///////******\n      ********\\\\\\\\\\\\\\**********  **********///////********\n        ********\\\\\\\\\\       For Fast       /////********\n         ********\\\\\\\\   Download Speeds    ////********\n           *******\\\\\\  Get Your Torrents   ///*******\n             ******\\\\          At          //******\n               *****\\\\ AtomicTorrents.net //*****\n                 ****\\\\                  //****\n                   ***\\\\\\\\\\\\\\\\\\  /////////***\n                     **\\\\\\\\\\\\\\\\\\/////////**\n                      */////////\\\\\\\\\\\\\\\\\\*\nThe Experiment 2010 DVDscr\n\n &lt;a href=&quot;\nhttp://www.imdb.com/title/tt0997152/&quot; rel=&quot;nofollow&quot; target=&quot;_NEW&quot;&gt;\nhttp://www.imdb.com/title/tt0997152/&lt;/a&gt;\n\nGeneral\nComplete name                    : D:\\The Experiment 2010 DVDscr Xvid.avi\nFormat                           : AVI\nFormat/Info                      : Audio Video Interleave\nFormat profile                   : OpenDML\nFile size                        : 1.17 GiB\nDuration                         : 17mn 54s\nOverall bit rate                 : 9 343 Kbps\nWriting application              : Lavf52.75.0\n\nVideo\nID                               : 0\nFormat                           : MPEG-4 Visual\nFormat profile                   : Simple@L3\nFormat settings, BVOP            : No\nFormat settings, QPel            : No\nFormat settings, GMC             : No warppoints\nFormat settings, Matrix          : Default (H.263)\nCodec ID                         : XVID\nCodec ID/Hint                    : XviD\nDuration                         : 17mn 54s\nBit rate                         : 1 593 Kbps\nWidth                            : 624 pixels\nHeight                           : 360 pixels\nDisplay aspect ratio             : 16:9\nFrame rate                       : 29.970 fps\nColor space                      : YUV\nChroma subsampling               : 4:2:0\nBit depth                        : 8 bits\nScan type                        : Progressive\nBits/(Pixel*Frame)               : 0.237\nStream size                      : 204 MiB (17%)\nWriting library                  : XviD 1.2.1 (UTC 2008-12-04)\n\nAudio\nID                               : 1\nFormat                           : MPEG Audio\nFormat version                   : Version 1\nFormat profile                   : Layer 3\nCodec ID                         : 55\nCodec ID/Hint                    : MP3\nDuration                         : 13mn 20s\nBit rate mode                    : Constant\nBit rate                         : 128 Kbps\nChannel(s)                       : 2 channels\nSampling rate                    : 44.1 KHz\nStream size                      : 12.2 MiB (1%)\nAlignment                        : Aligned on interleaves\nInterleave, duration             : 35 ms (1.05 video frame)\n\nScreens\n\n","torrent":{"xt":"urn:btih:f3dd15e7536e3c5dfc5333cc69b4d4186a9dfe74","amp;dn":"The+Experiment+2010+DVDscr+Xvid.avi","amp;tr":["udp%3A%2F%2Ftracker.openbittorrent.com%3A80","udp%3A%2F%2Fopen.demonii.com%3A1337","udp%3A%2F%2Ftracker.coppersurfer.tk%3A6969","udp%3A%2F%2Fexodus.desync.com%3A6969"],"infoHash":"f3dd15e7536e3c5dfc5333cc69b4d4186a9dfe74","infoHashBuffer":{"type":"Buffer","data":[243,221,21,231,83,110,60,93,252,83,51,204,105,180,212,24,106,157,254,116]},"announce":[],"urlList":[]}}